<svg data-v-0dd9719b="" version="1.0" xmlns="http://www.w3.org/2000/svg" xmlns:xlink="http://www.w3.org/1999/xlink" width="100%" height="100%" viewBox="0 0 340.000000 250.000000" preserveAspectRatio="xMidYMid meet" color-interpolation-filters="sRGB" style="margin: auto;"> <rect data-v-0dd9719b="" x="0" y="0" width="100%" height="100%" fill="#fff" fill-opacity="1" class="background"></rect> <rect data-v-0dd9719b="" x="0" y="0" width="100%" height="100%" fill="url(#watermark)" fill-opacity="1" class="watermarklayer"></rect> <g data-v-0dd9719b="" fill="#333" class="icon-text-wrapper icon-svg-group iconsvg" transform="translate(66.43000030517578,94.58637428283691)"><g class="iconsvg-imagesvg" transform="translate(0,0)"><g><rect fill="#333" fill-opacity="0" stroke-width="2" x="0" y="0" width="60" height="60.8272506082725" class="image-rect"></rect> <svg x="0" y="0" width="60" height="60.8272506082725" filtersec="colorsb423202313" class="image-svg-svg primary" style="overflow: visible;"><svg xmlns="http://www.w3.org/2000/svg" viewBox="-0.01667151227593422 -0.0010506667895242572 98.62667083740234 99.98663330078125"><path d="M4.5 70.71a49.73 49.73 0 0 0 13.39 17.61L97.16 46.7z" fill="#2a3d8f"></path><path d="M19.15 89.34a50 50 0 0 0 79.46-27.68z" fill="#272660"></path><path d="M76.66 7.71A50 50 0 0 0 0 51.29l82.29-39.45a51 51 0 0 0-5.63-4.13z" fill="#29aae1"></path><path d="M88 25L.06 52.31A50.25 50.25 0 0 0 4.15 70z" fill="#1f76bb"></path></svg></svg> <!----></g></g> <g transform="translate(67,6.558626174926758)"><g data-gra="path-name" fill-rule="" class="tp-name iconsvg-namesvg"><g transform="scale(1)"><g><path d="M38.29-47.71L5-47.71 2.34-21.39 28.93-21.39 27.43-6.7 0-6.7 0.91 0 33.41 0 36.34-28.08 9.88-28.08 11.18-41.02 30.88-41.02 30.48-37.31 37.18-37.31 38.29-47.71ZM41.86-33.15L38.29 0 45.11 0 47.91-26.39 64.48-26.39 61.62 0 68.51 0 71.96-33.15 41.86-33.15ZM71.96 0L75.4-33.15 105.63-33.15 102.05 0 71.96 0ZM81.58-26.39L79.43-6.7 96.01-6.7 98.09-26.39 81.58-26.39ZM132.15-33.22L140.14-33.22 126.23-20.8 139.36 0 131.89 0 121.42-16.57 113.36-9.36 112.39 0 105.63 0 110.63-47.71 117.39-47.71 114.21-17.29 132.15-33.22Z" transform="translate(0, 47.709999084472656)"></path></g> <!----> <!----> <!----> <!----> <!----> <!----> <!----></g></g> <!----></g></g><defs v-gra="od"></defs></svg>